<svg width="28" height="20" viewBox="0 0 28 20" fill="none" xmlns="http://www.w3.org/2000/svg">
<g id="Vector">
<path d="M0.134766 1.84093C0.134766 0.969279 0.84138 0.262665 1.71303 0.262665H25.4817C26.3534 0.262665 27.06 0.969279 27.06 1.84093C27.06 2.71258 26.3534 3.4192 25.4817 3.4192H1.71303C0.841378 3.4192 0.134766 2.71258 0.134766 1.84093Z" fill="#212121"/>
<path d="M0.134766 9.73227C0.134766 8.86061 0.84138 8.154 1.71303 8.154H17.401C18.2727 8.154 18.9793 8.86061 18.9793 9.73227C18.9793 10.6039 18.2727 11.3105 17.401 11.3105H1.71303C0.84138 11.3105 0.134766 10.6039 0.134766 9.73227Z" fill="#212121"/>
<path d="M0.134766 17.6236C0.134766 16.7519 0.84138 16.0453 1.71303 16.0453H25.4817C26.3534 16.0453 27.06 16.7519 27.06 17.6236C27.06 18.4953 26.3534 19.2019 25.4817 19.2019H1.71303C0.841378 19.2019 0.134766 18.4953 0.134766 17.6236Z" fill="#212121"/>
</g>
</svg>
